<?xml version="1.0" encoding="UTF-8" standalone="no"?><!DOCTYPE svg PUBLIC "-//W3C//DTD SVG 1.1//EN" "http://www.w3.org/Graphics/SVG/1.1/DTD/svg11.dtd"><svg width="100%" height="100%" viewBox="0 0 2481 3508" version="1.1" xmlns="http://www.w3.org/2000/svg" xmlns:xlink="http://www.w3.org/1999/xlink" xml:space="preserve" xmlns:serif="http://www.serif.com/" style="fill-rule:evenodd;clip-rule:evenodd;stroke-linejoin:round;stroke-miterlimit:2;"><g><path d="M1245.915,1611.204l-883.413,-0c-3.721,-28.457 -5.648,-57.553 -5.648,-87.143c0,-333.664 244.939,-604.556 546.635,-604.556c301.696,0 546.635,270.893 546.635,604.556c0,333.664 -244.939,604.556 -546.635,604.556c-190.91,0 -359.093,-108.472 -456.868,-272.68l260.129,-0c56.51,41.081 124.12,64.99 196.739,64.99c198.051,0 358.843,-177.83 358.843,-396.866c0,-219.036 -160.792,-396.866 -358.843,-396.866c-170.985,0 -314.199,132.546 -350.149,309.723l692.576,0c6.184,28.046 9.448,57.21 9.448,87.143c0,29.933 -3.264,59.097 -9.448,87.143Z" style="fill:#ff7900;"/><path d="M913.488,919.505l1019.86,-0l0,174.286l-636.018,0c-98.733,-107.745 -234.317,-174.286 -383.842,-174.286Z" style="fill:#ff7900;"/><path d="M1451.123,1436.918l269.162,0l0,174.286l-269.162,-0c4.057,-28.457 6.156,-57.553 6.156,-87.143c0,-29.59 -2.1,-58.686 -6.156,-87.143Z" style="fill:#ff7900;"/></g></svg>